# xmcd
#
# Track frame offsets:
#	150
#	13105
#	26665
#	43048
#	56788
#	68812
#	83217
#	96289
#	106770
#	120216
#	134401
#	145842
#
# Disc length: 2085 seconds
#
# Revision: 0
# Processed by: cddbd v1.4PL0 Copyright (c) Steve Scherf et al.
# Submitted via: EasyCDDAExtractor 4.6.9.1
#
DISCID=9f08230c
DTITLE=Ron Spears and Within Tradition - Grandpa Loved The Carolina Mountains
DYEAR=2001
DGENRE=Bluegrass
TTITLE0=Another Last Goodbye
TTITLE1=Girl From Boulder
TTITLE2=The Last To Know
TTITLE3=Grandpa Loved The Carolina Mountains
TTITLE4=Within Tradition
TTITLE5=Little Hands
TTITLE6=Dreams About The Hills Of Home
TTITLE7=Poor Old Monroe
TTITLE8=Cold Virginia Rain
TTITLE9=Never See Mama Or Daddy Again
TTITLE10=Trail Of The Old Lonesome Pine
TTITLE11=I Know What It Means To Be Lonesome
EXTD=
EXTT0=
EXTT1=
EXTT2=
EXTT3=
EXTT4=
EXTT5=
EXTT6=
EXTT7=
EXTT8=
EXTT9=
EXTT10=
EXTT11=
PLAYORDER=
